<svg width="811" height="88" viewBox="0 0 811 88" fill="none" xmlns="http://www.w3.org/2000/svg">
<path fill-rule="evenodd" clip-rule="evenodd" d="M162.933 11.6025C157.321 12.3123 151.998 14.4635 147.486 17.8452C145.97 18.9815 143.406 21.4698 142.172 23.0025C138.074 28.0897 135.475 34.7587 135.056 41.2597C134.647 47.6006 135.76 53.3586 138.409 58.608C140.933 63.608 144.504 67.6348 149.183 70.7539C156.174 75.4156 164.845 77.1131 173.175 75.4511C177.928 74.5029 182.038 72.6804 185.925 69.7975C187.371 68.7259 189.416 66.9651 189.416 66.7927C189.416 66.7366 188.912 66.1597 188.295 65.5108L187.175 64.3308L186.711 64.7299C186.456 64.9494 185.812 65.5091 185.279 65.9735C182.472 68.4198 178.442 70.527 174.43 71.6458C171.887 72.3549 170.563 72.5092 167.023 72.509C163.424 72.5088 162.231 72.3631 159.47 71.587C149.564 68.8027 142 61.1065 139.528 51.2968C138.029 45.3465 138.412 38.1702 140.515 32.8259C142.561 27.6272 146.166 23.1004 150.844 19.8587C154.731 17.1647 159.336 15.4801 164.181 14.9796C166.132 14.778 169.754 14.8984 171.637 15.2274C175.227 15.8546 178.955 17.2526 181.867 19.0638C183.057 19.804 185.262 21.4723 186.279 22.4012L187.14 23.1886L188.298 21.9755L189.457 20.7623L188.852 20.142C187.335 18.5859 184.237 16.3619 181.788 15.0711C178.696 13.4416 175.237 12.2992 171.637 11.7187C169.943 11.4455 164.725 11.3759 162.933 11.6025ZM219.007 28.9067C214.874 29.7315 211.613 32.235 209.621 36.1128C208.074 39.1244 207.473 42.355 207.745 46.1897C208.293 53.9092 211.919 58.7043 218.119 59.9116C219.492 60.1789 222.055 60.2267 223.747 60.0164C226.068 59.7278 228.565 58.8948 230.326 57.8209L231.31 57.2207L231.372 55.3612C231.406 54.3383 231.422 53.5016 231.407 53.5017C231.393 53.5018 230.922 53.8154 230.362 54.1987C228.975 55.1463 226.889 56.1279 225.405 56.5319C224.288 56.8356 223.969 56.8675 221.96 56.876C219.387 56.8869 218.786 56.7689 217.033 55.9087C214.657 54.742 213.004 52.6012 212.134 49.5647C211.823 48.4789 211.564 46.7309 211.563 45.7198L211.563 45.1354H222.425H233.288L233.256 43.0745C233.203 39.6639 232.745 37.3422 231.682 35.0859C231.04 33.7242 230.561 33.005 229.656 32.0464C228.354 30.6677 226.884 29.7849 224.903 29.1925C223.938 28.9039 223.552 28.8593 221.713 28.8241C220.563 28.802 219.345 28.8391 219.007 28.9067ZM200.059 29.0201C198.15 29.4033 196.183 30.7717 195.022 32.524C194.533 33.2626 193.814 34.6853 193.607 35.3231C193.525 35.5769 193.406 35.7845 193.344 35.7845C193.277 35.7845 193.23 34.4568 193.23 32.5855V29.3865H191.385H189.539V44.4587V59.5308H191.375H193.211L193.265 51.0104C193.316 42.9847 193.334 42.4114 193.578 41.1366C194.518 36.2282 196.512 33.2867 199.425 32.5111C200.82 32.1395 203.322 32.4044 204.121 33.0083C204.255 33.1098 204.393 33.1947 204.427 33.197C204.46 33.1992 204.472 32.3189 204.452 31.2408L204.415 29.2806L203.566 29.0874C202.678 28.8854 200.9 28.8513 200.059 29.0201ZM223.167 32.1523C225.773 32.7044 227.777 34.591 228.728 37.3883C229.103 38.491 229.402 40.1533 229.403 41.1366L229.403 41.8749H220.533H211.662L211.738 41.3046C212.178 37.9863 214.099 34.7104 216.438 33.2908C218.369 32.1187 220.949 31.6822 223.167 32.1523Z" fill="#651C77"/>
<rect x="156.258" y="32.4277" width="20.7934" height="22.6389" rx="9.83033" fill="#40CCF4"/>
<path d="M65.3978 35.6393V19.0848H75.0507V21.1366H67.5662V26.1496H73.6517V28.2014H67.5662V33.5875H75.0507V35.6393H65.3978Z" fill="#651C77"/>
<path d="M77.823 35.6393V23.9812H79.8282V25.7765C80.621 24.4242 81.8567 23.748 83.5355 23.748C84.8568 23.748 85.9215 24.1755 86.7298 25.0304C87.5381 25.8854 87.9423 27.0279 87.9423 28.4579V35.6393H85.9604V28.761C85.9604 27.7817 85.7117 27.0123 85.2143 26.4527C84.7169 25.8776 84.0485 25.59 83.2091 25.59C82.2453 25.59 81.437 25.9708 80.7842 26.7325C80.1469 27.4942 79.8282 28.5356 79.8282 29.8569V35.6393H77.823Z" fill="#651C77"/>
<path d="M95.94 35.7559C94.8674 35.7559 94.0047 35.4528 93.3518 34.8466C92.699 34.2404 92.3726 33.3543 92.3726 32.1885V25.8232H89.901V23.9812H92.3726V20.7402H94.3778V23.9812H97.7353V25.8232H94.3778V31.9321C94.3778 32.6626 94.5332 33.1756 94.8441 33.4709C95.155 33.7663 95.6446 33.9139 96.313 33.9139C96.9037 33.9139 97.3778 33.8362 97.7353 33.6808V35.4761C97.1757 35.6627 96.5773 35.7559 95.94 35.7559Z" fill="#651C77"/>
<path d="M102.325 20.4604C102.061 20.7247 101.727 20.8568 101.323 20.8568C100.919 20.8568 100.577 20.7247 100.297 20.4604C100.017 20.1806 99.8771 19.8387 99.8771 19.4345C99.8771 19.0459 100.017 18.7117 100.297 18.4319C100.577 18.1521 100.919 18.0122 101.323 18.0122C101.727 18.0122 102.061 18.1521 102.325 18.4319C102.59 18.7117 102.722 19.0459 102.722 19.4345C102.722 19.8387 102.59 20.1806 102.325 20.4604ZM100.297 35.6393V23.9812H102.302V35.6393H100.297Z" fill="#651C77"/>
<path d="M110.627 35.7559C109.554 35.7559 108.691 35.4528 108.038 34.8466C107.386 34.2404 107.059 33.3543 107.059 32.1885V25.8232H104.588V23.9812H107.059V20.7402H109.064V23.9812H112.422V25.8232H109.064V31.9321C109.064 32.6626 109.22 33.1756 109.531 33.4709C109.842 33.7663 110.331 33.9139 111 33.9139C111.59 33.9139 112.064 33.8362 112.422 33.6808V35.4761C111.862 35.6627 111.264 35.7559 110.627 35.7559Z" fill="#651C77"/>
<path d="M118.084 40.5125H115.846L118.388 35.0331L113.281 23.9812H115.496L119.507 32.8414L123.494 23.9812H125.732L118.084 40.5125Z" fill="#651C77"/>
<path d="M6.40109 68.3243V51.7698H16.0307V53.8216H8.56951V58.8346H14.4685V60.8864H8.56951V68.3243H6.40109Z" fill="#651C77"/>
<path d="M17.7561 68.3243V56.6662H19.7613V58.9279C19.979 58.2128 20.3987 57.6377 21.0204 57.2025C21.6577 56.7672 22.3261 56.5496 23.0256 56.5496C23.3676 56.5496 23.6707 56.5807 23.935 56.6429V58.718C23.6552 58.5937 23.2899 58.5315 22.8391 58.5315C22.0308 58.5315 21.3158 58.8812 20.694 59.5807C20.0722 60.2802 19.7613 61.2673 19.7613 62.5419V68.3243H17.7561Z" fill="#651C77"/>
<path d="M30.7109 68.5575C29.0943 68.5575 27.7342 67.9668 26.6306 66.7855C25.5425 65.6041 24.9984 64.174 24.9984 62.4953C24.9984 60.8165 25.5425 59.3864 26.6306 58.2051C27.7342 57.0237 29.0943 56.433 30.7109 56.433C31.5658 56.433 32.3586 56.6273 33.0892 57.0159C33.8353 57.389 34.4104 57.8709 34.8146 58.4615V56.6662H36.8198V68.3243H34.8146V66.529C34.4104 67.1197 33.8353 67.6093 33.0892 67.9979C32.3586 68.371 31.5658 68.5575 30.7109 68.5575ZM31.014 66.7155C32.1643 66.7155 33.1125 66.3114 33.8586 65.5031C34.6047 64.6948 34.9778 63.6922 34.9778 62.4953C34.9778 61.2984 34.6047 60.2958 33.8586 59.4875C33.1125 58.6792 32.1643 58.275 31.014 58.275C29.8482 58.275 28.8922 58.6792 28.1461 59.4875C27.4 60.2958 27.0269 61.2984 27.0269 62.4953C27.0269 63.6922 27.4 64.6948 28.1461 65.5031C28.8922 66.3114 29.8482 66.7155 31.014 66.7155Z" fill="#651C77"/>
<path d="M55.61 68.3243V61.4693C55.61 60.5056 55.4079 59.7362 55.0038 59.161C54.6152 58.5704 54.0478 58.275 53.3017 58.275C52.369 58.275 51.6074 58.6403 51.0167 59.3709C50.4416 60.1015 50.1384 61.0963 50.1074 62.3554V68.3243H48.1022V61.4693C48.1022 60.4901 47.9001 59.7128 47.4959 59.1377C47.1073 58.5626 46.5477 58.275 45.8172 58.275C44.8534 58.275 44.0762 58.6636 43.4855 59.4408C42.8948 60.2025 42.5995 61.2362 42.5995 62.5419V68.3243H40.5943V56.6662H42.5995V58.4615C43.3456 57.1092 44.5192 56.433 46.1203 56.433C47.8923 56.433 49.0892 57.2646 49.711 58.9279C50.0219 58.1662 50.5193 57.56 51.2032 57.1092C51.8872 56.6584 52.6644 56.433 53.5349 56.433C54.7939 56.433 55.7888 56.8605 56.5193 57.7154C57.2499 58.5703 57.6152 59.7206 57.6152 61.1662V68.3243H55.61Z" fill="#651C77"/>
<path d="M66.3534 68.5575C64.5658 68.5575 63.1124 67.9824 61.9932 66.8321C60.874 65.6818 60.3144 64.2362 60.3144 62.4953C60.3144 60.7699 60.8818 59.332 62.0165 58.1817C63.1513 57.0159 64.6046 56.433 66.3767 56.433C67.9466 56.433 69.2601 56.9615 70.3171 58.0185C71.3897 59.06 71.926 60.4823 71.926 62.2854C71.926 62.5186 71.9182 62.7207 71.9027 62.8916H62.343C62.374 63.9797 62.7627 64.8891 63.5088 65.6197C64.2704 66.3502 65.2264 66.7155 66.3767 66.7155C68.0088 66.7155 69.2213 66.0393 70.014 64.687L71.5995 65.7829C70.4648 67.6326 68.7161 68.5575 66.3534 68.5575ZM62.4829 61.2595H69.8741C69.7187 60.3268 69.3068 59.5885 68.6384 59.0444C67.9855 58.4849 67.2083 58.2051 66.3067 58.2051C65.3896 58.2051 64.5658 58.4849 63.8352 59.0444C63.1202 59.5885 62.6694 60.3268 62.4829 61.2595Z" fill="#651C77"/>
<path d="M84.6352 68.3243L81.744 59.9538L78.8761 68.3243H77.104L73.1402 56.6662H75.2387L78.06 65.1766L80.9745 56.6662H82.5134L85.4279 65.1766L88.2492 56.6662H90.371L86.4072 68.3243H84.6352Z" fill="#651C77"/>
<path d="M97.663 68.5575C95.9065 68.5575 94.4453 67.9746 93.2795 66.8088C92.1293 65.6274 91.5541 64.1896 91.5541 62.4953C91.5541 60.8009 92.1293 59.3709 93.2795 58.2051C94.4453 57.0237 95.9065 56.433 97.663 56.433C99.404 56.433 100.85 57.0237 102 58.2051C103.166 59.3709 103.749 60.8009 103.749 62.4953C103.749 64.1896 103.166 65.6274 102 66.8088C100.85 67.9746 99.404 68.5575 97.663 68.5575ZM94.7251 65.4798C95.4868 66.2881 96.4661 66.6922 97.663 66.6922C98.8599 66.6922 99.8314 66.2881 100.578 65.4798C101.324 64.6715 101.697 63.6766 101.697 62.4953C101.697 61.3139 101.324 60.3191 100.578 59.5108C99.8314 58.7025 98.8599 58.2983 97.663 58.2983C96.4661 58.2983 95.4868 58.7025 94.7251 59.5108C93.979 60.3191 93.606 61.3139 93.606 62.4953C93.606 63.6766 93.979 64.6715 94.7251 65.4798Z" fill="#651C77"/>
<path d="M106.627 68.3243V56.6662H108.632V58.9279C108.85 58.2128 109.269 57.6377 109.891 57.2025C110.528 56.7672 111.197 56.5496 111.896 56.5496C112.238 56.5496 112.541 56.5807 112.806 56.6429V58.718C112.526 58.5937 112.161 58.5315 111.71 58.5315C110.902 58.5315 110.186 58.8812 109.565 59.5807C108.943 60.2802 108.632 61.2673 108.632 62.5419V68.3243H106.627Z" fill="#651C77"/>
<path d="M123.489 68.3243L117.171 62.4953V68.3243H115.166V50.8371H117.171V61.2129L122.254 56.6662H124.912L119.176 61.8191L126.194 68.3243H123.489Z" fill="#651C77"/>
<path d="M312.544 37.1852C309.212 22.4872 302.268 18.5744 300.497 15.8085C299.766 14.59 299.119 13.3235 298.56 12.0176C298.466 13.3233 298.294 14.1459 297.185 15.1361C294.956 17.1229 285.492 24.8353 284.695 41.5354C283.953 57.1061 296.142 66.7074 297.753 67.6998C298.991 68.3091 300.499 67.7128 301.234 67.1535C307.11 63.1211 315.138 52.3707 312.551 37.1852" fill="#4AAE50"/>
<path d="M299.066 59.4087C298.759 63.2627 298.539 65.502 297.76 67.7043C297.76 67.7043 298.272 71.3734 298.631 75.2601H299.902C300.205 72.5231 300.668 69.8062 301.288 67.1233C299.643 66.3137 299.129 62.7905 299.066 59.4087Z" fill="#C2BFBF"/>
<path d="M301.285 67.1255C299.623 66.3573 299.142 62.7601 299.068 59.4088C299.479 53.8805 299.599 48.3344 299.427 42.7935C299.34 39.8861 299.468 15.8654 298.711 12.3486C299.229 13.5397 299.826 14.6949 300.498 15.8066C302.269 18.5747 309.216 22.4875 312.545 37.1855C315.139 52.3448 307.155 63.0669 301.285 67.1255Z" fill="#1B8634"/>
<path d="M466.694 58.5208C467.671 59.302 469.623 59.6241 471.345 59.6241C473.575 59.6241 475.762 59.2106 477.899 57.2804C480.076 55.3022 481.573 52.2751 481.573 47.4418C481.573 42.7978 479.806 39.0286 476.18 36.822C474.135 35.5359 471.484 35.0288 468.461 35.0288C467.591 35.0288 466.694 35.0745 466.185 35.3052C465.976 35.47 465.828 35.6997 465.765 35.958C465.674 36.785 465.674 43.0829 465.674 46.8064C465.674 50.6234 465.674 55.9464 465.765 56.5992C465.813 57.152 466.091 58.1225 466.694 58.5295M457.415 32.9614C458.205 32.9614 461.208 33.0985 462.605 33.0985C465.217 33.0985 467.021 32.9614 471.902 32.9614C475.993 32.9614 479.436 34.0648 481.897 36.1778C484.874 38.7544 486.467 42.3386 486.467 46.7062C486.467 52.9127 483.638 56.4991 480.794 58.5208C477.965 60.636 474.285 61.8308 469.042 61.8308C466.252 61.8308 461.463 61.7394 457.465 61.6937H457.382C457.195 61.3259 457.724 59.8918 458.05 59.8548C459.139 59.7329 459.426 59.6894 459.926 59.4827C460.771 59.1366 460.969 58.7058 461.062 57.189C461.202 54.3381 461.156 50.9368 461.156 47.074C461.156 44.3168 461.202 38.9372 461.11 37.2355C460.969 35.8122 460.368 35.4445 459.152 35.1681C458.289 34.9848 457.417 34.8468 456.54 34.7546C456.449 34.4782 457.163 33.2313 457.395 32.9614" fill="#907151"/>
<path d="M497.991 35.2943C497.806 35.34 497.573 35.8014 497.573 36.0299C497.525 37.686 497.48 42.0057 497.48 44.9936C497.491 45.0507 497.52 45.1031 497.561 45.1441C497.603 45.1852 497.655 45.2131 497.712 45.2243C498.315 45.27 499.804 45.3179 501.059 45.3179C502.827 45.3179 503.849 45.0872 504.406 44.8108C505.895 44.0753 506.583 42.4649 506.583 40.7196C506.583 36.7198 503.793 35.2029 499.656 35.2029C499.097 35.1959 498.537 35.2264 497.982 35.2943M508.537 53.6832C508.537 49.6376 505.56 47.3396 500.119 47.3396C499.889 47.3396 498.161 47.2939 497.749 47.3853C497.61 47.431 497.471 47.5224 497.471 47.6159C497.471 50.5124 497.423 55.1543 497.565 56.9931C497.658 57.7744 498.217 58.8777 498.912 59.1998C499.656 59.6133 501.329 59.7047 502.491 59.7047C505.699 59.7047 508.537 57.9137 508.537 53.6832ZM489.591 33.042C490.011 33.042 491.247 33.1791 494.409 33.1791C497.384 33.1791 499.802 33.0877 502.679 33.0877C506.258 33.0877 511.185 34.376 511.185 39.7077C511.185 42.3191 509.327 44.4431 506.909 45.455C506.77 45.5007 506.77 45.5921 506.909 45.6378C510.35 46.5083 513.37 48.6257 513.37 52.6712C513.37 56.6254 510.907 59.1084 507.327 60.6709C505.151 61.6371 502.446 61.957 499.71 61.957C497.619 61.957 492.013 61.7394 488.897 61.7742C488.57 61.6371 489.195 60.1639 489.473 59.9354C490.187 59.9134 490.896 59.8023 491.582 59.6046C492.696 59.3304 492.829 58.9713 492.968 57.3152C493.062 55.8898 493.062 50.7866 493.062 47.1546C493.062 42.1885 493.11 38.835 493.062 37.1789C493.016 35.8928 492.551 35.4771 491.667 35.2486C490.971 35.1094 489.809 34.9723 488.879 34.8352C488.646 34.6045 489.362 33.2248 489.593 33.042" fill="#907151"/>
<path d="M322.839 61.8117C322.72 61.5174 322.671 61.199 322.698 60.8825C322.687 60.6667 322.736 60.4522 322.839 60.2623C323.441 60.1755 324.037 60.0542 324.624 59.8988C325.446 59.6943 325.755 59.246 325.803 58.1971C325.938 55.7184 325.947 51.0679 325.899 47.7992V47.7035C325.899 47.3509 325.899 46.8722 325.464 46.5349C324.699 46.0549 323.868 45.6884 322.998 45.4468C322.609 45.3314 322.393 45.1269 322.404 44.8875C322.415 44.6481 322.661 44.3652 323.168 44.2651C324.515 44.128 328.045 43.2858 329.431 42.646C329.574 42.832 329.64 43.0656 329.616 43.2989C329.616 43.4425 329.594 43.5948 329.579 43.7515C329.54 44.2129 329.496 44.7373 329.496 45.2596C329.505 45.323 329.531 45.3829 329.572 45.4323C329.612 45.4817 329.666 45.5188 329.727 45.5394C329.787 45.56 329.852 45.5632 329.915 45.5488C329.977 45.5343 330.034 45.5028 330.08 45.4576C332.719 43.3881 335.085 42.6503 336.297 42.6503C338.293 42.6503 339.846 43.6035 341.05 45.5664C341.077 45.6138 341.117 45.6533 341.164 45.6812C341.211 45.709 341.265 45.7242 341.32 45.7253C341.369 45.7248 341.418 45.7123 341.462 45.6888C341.506 45.6653 341.544 45.6316 341.572 45.5904C343.998 43.7493 346.403 42.6503 348.014 42.6503C351.818 42.6503 354.092 45.499 354.092 50.267C354.092 51.638 354.079 53.3768 354.066 54.9981C354.055 56.4213 354.044 57.7553 354.044 58.678C354.044 58.8956 354.344 59.5224 354.795 59.6464C355.352 59.9184 356.155 60.0577 357.171 60.2318H357.21C357.286 60.506 357.125 61.5701 356.971 61.7878C356.718 61.7878 356.37 61.766 355.935 61.7442C355.145 61.7051 354.061 61.6507 352.801 61.6507C350.272 61.6507 348.951 61.6985 347.689 61.7812C347.594 61.4657 347.561 60.4472 347.676 60.234C348.199 60.1522 348.716 60.0396 349.226 59.8967C350.031 59.6312 350.264 59.2656 350.314 58.1971C350.333 57.4376 350.479 50.7458 350.22 49.1572C349.981 47.5098 348.74 45.5817 346.027 45.5817C345.019 45.5817 343.393 46.0017 341.844 47.1768C341.748 47.2858 341.694 47.4255 341.692 47.5707V47.6034C341.875 48.4608 341.875 49.4618 341.875 50.9743C341.875 51.8448 341.875 52.7522 341.864 53.6597C341.853 55.5051 341.844 57.2461 341.875 58.5627C341.875 59.4592 342.416 59.6747 342.854 59.8466C343.091 59.8988 343.278 59.9445 343.467 59.9881C343.831 60.0773 344.21 60.1687 344.773 60.2579C344.857 60.6402 344.849 61.0367 344.751 61.4156C344.728 61.5578 344.672 61.6927 344.588 61.8095C343.182 61.7617 341.74 61.7203 339.657 61.7203C339.026 61.7203 337.997 61.7464 337.087 61.7704C336.349 61.7899 335.653 61.8095 335.257 61.8117C335.15 61.5589 335.102 61.285 335.117 61.0109C335.095 60.7526 335.146 60.4933 335.263 60.2623L335.823 60.16C336.31 60.0729 336.732 59.9989 337.128 59.8988C337.816 59.6812 338.075 59.3069 338.125 58.4299C338.26 56.3843 338.364 50.489 338.075 49.0135C337.583 46.6458 336.236 45.4446 334.069 45.4446C332.8 45.4446 331.196 46.0561 329.886 47.0376C329.76 47.1602 329.661 47.3077 329.594 47.4706C329.528 47.6335 329.496 47.8084 329.501 47.9842C329.501 48.6871 329.501 49.5228 329.501 50.4193C329.501 53.379 329.481 57.0633 329.553 58.6562C329.596 59.148 329.771 59.7313 330.691 59.9445C330.893 60.0033 331.242 60.0599 331.646 60.1273C331.879 60.1665 332.134 60.2079 332.397 60.2557C332.481 60.7768 332.438 61.3104 332.273 61.8117C331.868 61.8117 331.37 61.7856 330.8 61.7617C329.929 61.7225 328.841 61.6746 327.612 61.6746C326.158 61.6746 325.146 61.7225 324.334 61.7617C323.788 61.7878 323.316 61.8095 322.844 61.8117" fill="#442D22"/>
<path d="M369.508 44.6178C368.723 44.6015 367.95 44.8189 367.289 45.2424C365.674 46.2238 364.851 48.1846 364.851 51.0658C364.851 56.4584 367.552 60.2254 371.419 60.2254C372.456 60.2583 373.467 59.9002 374.252 59.2222C375.441 58.2538 376.072 56.2735 376.072 53.501C376.072 48.1889 373.432 44.6178 369.504 44.6178M370.248 62.2253C363.263 62.2253 360.775 57.1004 360.775 52.3063C360.775 48.9571 362.144 46.3392 364.845 44.522C366.736 43.351 368.908 42.7092 371.132 42.6636C376.461 42.6636 380.185 46.4958 380.185 51.9864C380.185 55.7164 378.698 58.6629 375.885 60.504C374.533 61.3309 372.185 62.2253 370.248 62.2253Z" fill="#442D22"/>
<path d="M440.627 44.6178C439.84 44.6 439.066 44.8174 438.403 45.2424C436.788 46.2238 435.966 48.1846 435.966 51.0658C435.966 56.4584 438.667 60.2254 442.534 60.2254C443.573 60.2605 444.588 59.9023 445.376 59.2222C446.564 58.2538 447.193 56.2735 447.193 53.501C447.193 48.1889 444.555 44.6178 440.627 44.6178ZM441.372 62.2253C434.386 62.2253 431.899 57.1004 431.899 52.3085C431.899 48.9549 433.267 46.3392 435.97 44.522C437.861 43.3503 440.031 42.7084 442.255 42.6636C447.585 42.6636 451.308 46.498 451.308 51.9842C451.308 55.7185 449.822 58.6629 447.008 60.5018C445.656 61.3309 443.308 62.2253 441.372 62.2253Z" fill="#442D22"/>
<path d="M417.107 44.4348C414.954 44.4348 413.562 46.1344 413.562 48.7654C413.562 51.3965 414.761 54.5236 418.132 54.5236C418.71 54.5236 419.759 54.2669 420.279 53.6945C421.063 52.9742 421.585 51.4857 421.585 49.9145C421.585 46.4826 419.914 44.4348 417.117 44.4348M416.839 62.593C416.231 62.5863 415.631 62.7362 415.098 63.0282C413.394 64.1163 412.604 65.2044 412.604 66.4688C412.604 67.6526 413.063 68.5949 414.051 69.4306C415.248 70.4447 416.863 70.9386 418.985 70.9386C423.161 70.9386 425.032 68.6928 425.032 66.4688C425.032 64.9193 424.255 63.8813 422.656 63.2937C421.424 62.8432 419.365 62.5951 416.845 62.5951M417.124 73.2585C414.617 73.2585 412.811 72.7297 411.268 71.5415C409.766 70.3837 409.092 68.6645 409.092 67.4763C409.108 66.7106 409.4 65.9765 409.914 65.4089C410.35 64.9128 411.361 63.9835 413.701 62.3753C413.737 62.3599 413.768 62.3341 413.79 62.3012C413.811 62.2683 413.823 62.2298 413.823 62.1904C413.823 62.1464 413.809 62.1035 413.782 62.0687C413.755 62.0338 413.717 62.0092 413.675 61.9989C411.749 61.2611 411.168 60.0403 410.991 59.3874C410.991 59.3635 410.991 59.3265 410.972 59.2851C410.917 59.0284 410.865 58.7846 411.216 58.5344C411.485 58.3429 411.916 58.0861 412.378 57.814C413.029 57.4535 413.654 57.047 414.247 56.5976C414.279 56.5633 414.303 56.5222 414.316 56.4773C414.33 56.4325 414.333 56.3852 414.325 56.339C414.318 56.2928 414.3 56.2489 414.273 56.2107C414.245 56.1726 414.21 56.1411 414.169 56.1188C411.318 55.1613 409.882 53.0438 409.882 49.8078C409.873 48.7988 410.108 47.8024 410.566 46.9035C411.024 46.0045 411.693 45.2293 412.515 44.6437C413.662 43.7363 416.541 42.646 418.406 42.646H418.515C420.432 42.6917 421.513 43.0943 423.011 43.647C423.862 43.955 424.765 44.0983 425.67 44.0692C427.256 44.0692 427.951 43.5665 428.547 42.9811C428.644 43.2448 428.695 43.5229 428.699 43.8037C428.736 44.4728 428.554 45.1357 428.181 45.6927C427.857 46.1431 427.093 46.4696 426.395 46.4696C426.323 46.4696 426.253 46.4696 426.177 46.4587C425.809 46.4328 425.445 46.3723 425.089 46.2781L424.91 46.3412C424.854 46.4239 424.891 46.5153 424.937 46.6328C424.948 46.6558 424.956 46.6798 424.963 46.7046C425.09 47.2854 425.177 47.8744 425.222 48.4673C425.222 51.8513 423.888 53.3246 422.445 54.417C421.05 55.4637 419.393 56.1052 417.657 56.2711C417.62 56.2711 417.44 56.2864 417.1 56.3168C416.882 56.3364 416.6 56.3625 416.558 56.3625H416.517C416.203 56.4496 415.385 56.8391 415.385 57.5638C415.385 58.1644 415.755 58.9108 417.524 59.0458L418.669 59.1263C421.002 59.2895 423.916 59.4919 425.287 59.9554C426.196 60.2752 426.982 60.8737 427.532 61.6656C428.081 62.4576 428.367 63.4027 428.349 64.3666C428.349 67.4023 426.19 70.2575 422.575 72.0028C420.871 72.817 419.004 73.2358 417.115 73.228" fill="#442D22"/>
<path d="M406.43 60.192C405.407 60.0549 404.661 59.9156 403.779 59.5021C403.606 59.323 403.493 59.0951 403.453 58.8493C403.359 57.4239 403.359 53.2869 403.359 50.5798C403.359 48.3709 402.989 46.445 402.054 45.0631C400.937 43.4984 399.357 42.5801 397.312 42.5801C395.499 42.5801 393.081 43.8205 391.083 45.5223C391.036 45.568 390.729 45.8596 390.735 45.4069C390.742 44.9543 390.811 44.0359 390.855 43.4484C390.874 43.2923 390.857 43.1338 390.804 42.9857C390.751 42.8375 390.664 42.7039 390.55 42.5953C389.245 43.2482 385.582 44.1186 384.226 44.2514C383.238 44.4429 382.988 45.3939 384.044 45.7225H384.059C384.904 45.9555 385.71 46.3103 386.453 46.7758C386.87 47.0978 386.825 47.557 386.825 47.9248C386.87 51.0041 386.87 55.7395 386.731 58.3139C386.685 59.3259 386.405 59.6936 385.66 59.8786L385.73 59.8547C385.163 59.9967 384.588 60.1043 384.009 60.1768C383.776 60.4053 383.776 61.7393 384.009 62.0156C384.474 62.0156 386.838 61.8785 388.796 61.8785C391.49 61.8785 392.885 62.0156 393.584 62.0156C393.865 61.6936 393.956 60.4531 393.771 60.1768C393.127 60.1476 392.488 60.0551 391.863 59.9004C391.12 59.7176 390.933 59.3476 390.888 58.5228C390.796 56.3597 390.796 51.7636 390.796 48.6364C390.796 47.7659 391.027 47.3503 391.305 47.1131C392.235 46.2861 393.771 45.7356 395.118 45.7356C396.424 45.7356 397.294 46.149 397.947 46.6996C398.708 47.3631 399.184 48.2932 399.279 49.298C399.464 51.0389 399.416 54.5404 399.416 57.5675C399.416 59.2236 399.279 59.6392 398.674 59.822C398.395 59.9591 397.651 60.0984 396.768 60.1898C396.489 60.4662 396.581 61.7523 396.768 62.0287C397.975 62.0287 399.379 61.8916 401.416 61.8916C403.973 61.8916 405.601 62.0287 406.252 62.0287C406.53 61.7066 406.624 60.5054 406.439 60.1898" fill="#442D22"/>
<path fill-rule="evenodd" clip-rule="evenodd" d="M566.633 21.3517L566.659 31.7035L568.662 32.9708C569.764 33.6678 570.683 34.2382 570.705 34.2382C570.726 34.2382 570.744 29.9389 570.744 24.6844V15.1307L583.221 15.1688C594.264 15.2026 595.832 15.226 596.863 15.3729C601.119 15.9794 604.746 17.2624 608.271 19.4073C609.152 19.9431 609.397 20.1359 609.305 20.2202C609.238 20.281 602.396 24.6152 594.098 29.8518C585.801 35.0885 579.013 39.4029 579.013 39.4395C579.013 39.476 579.876 40.0521 580.931 40.7196L582.85 41.9331L599.413 31.4757C608.523 25.724 616.102 20.9304 616.255 20.8232L616.535 20.6282L616.059 20.1395C615.368 19.4307 613.473 17.8545 612.334 17.0424C608.092 14.0167 603.555 12.1959 597.962 11.274C596.7 11.066 596.477 11.0626 581.645 11.0315L566.608 11L566.633 21.3517Z" fill="#F48424"/>
<path fill-rule="evenodd" clip-rule="evenodd" d="M566.609 55.7863V76.3701L581.006 76.3684C595.378 76.3666 596.07 76.3523 598.381 76.0093L599.488 75.8449V73.6957C599.488 72.5137 599.471 71.5466 599.449 71.5466C599.428 71.5466 599.085 71.6124 598.686 71.6929C596.298 72.1757 596.482 72.1696 583.221 72.209L570.744 72.246V57.5184C570.744 45.7622 570.769 42.8059 570.867 42.8654C570.935 42.9065 577.347 46.9535 585.116 51.8588C592.885 56.7641 599.297 60.8111 599.365 60.8522C599.462 60.9111 599.488 60.4029 599.487 58.4354L599.485 55.944L583.432 45.8048C574.603 40.2282 567.206 35.5614 566.994 35.4341L566.609 35.2026V55.7863Z" fill="#ED0F69"/>
<path fill-rule="evenodd" clip-rule="evenodd" d="M616.856 23.9637C615.939 24.5388 615.152 25.0428 615.107 25.0837C615.063 25.1246 615.326 25.5289 615.692 25.9822C617.247 27.905 618.955 30.8615 619.898 33.2605C621.234 36.6609 621.852 39.9348 621.855 43.6393C621.859 48.2677 620.979 52.0611 618.932 56.2395C616.689 60.8173 613.287 64.6773 609.036 67.4682C608.36 67.9125 607.551 68.4182 607.24 68.5919L606.674 68.9077V49.6922C606.674 31.8355 606.662 30.4811 606.511 30.5393C606.421 30.5739 605.468 31.1587 604.394 31.839L602.441 33.076V54.0833C602.441 66.0534 602.478 75.0906 602.527 75.0906C602.702 75.0906 605.266 74.1796 606.177 73.7939C608.86 72.6573 611.45 71.0952 613.958 69.0991C615.219 68.0957 617.856 65.4451 618.917 64.1146C622.667 59.41 624.928 54.1056 625.84 47.8722C626.087 46.1842 626.087 41.1929 625.84 39.5049C625.115 34.5466 623.61 30.3496 621.15 26.422C620.351 25.1463 618.728 22.918 618.598 22.918C618.557 22.918 617.773 23.3885 616.856 23.9637Z" fill="#04ACC4"/>
<path fill-rule="evenodd" clip-rule="evenodd" d="M636.768 29.3023C636.613 29.4564 636.487 37.3327 636.487 46.8046V64.026L645.644 63.8912C654.657 63.7586 654.839 63.7384 657.163 62.5966C663.752 59.361 667.689 51.3349 666.429 43.7071C665.151 35.966 659.849 30.4985 652.606 29.4514C649.385 28.9857 637.199 28.8708 636.768 29.3023ZM641.538 46.552L641.537 59.5462L647.748 59.329C654.764 59.0839 656.254 58.5943 658.797 55.698C661.167 52.9979 661.951 50.7589 661.946 46.7048C661.941 42.3728 660.919 39.7165 658.251 37.1049C655.506 34.4174 653.982 33.948 647.328 33.7392L641.539 33.5573L641.538 46.552ZM680.411 38.7195C672.315 40.3409 667.972 49.7109 671.695 57.5265C675.154 64.7897 684.77 67.089 690.404 61.9996L692.063 60.5007V62.2341V63.967H694.378H696.694V51.5247V39.082L694.484 39.2096L692.273 39.3368L692.143 41.1506L692.012 42.9644L691.185 41.9135C689.338 39.565 684.037 37.9933 680.411 38.7195ZM714.588 38.6884C712.252 39.0702 709.925 40.2656 708.713 41.7059L707.69 42.9222L707.56 41.1295L707.43 39.3368L705.22 39.2096L703.009 39.082V56.599V74.116L705.22 73.9884L707.43 73.8612L707.641 67.1946L707.851 60.5281L708.904 61.6568C710.86 63.7557 712.992 64.5531 716.693 64.5712C719.544 64.5855 720.388 64.4163 722.193 63.4681C724.423 62.2964 726.938 59.8228 728.015 57.7404C728.363 57.0672 728.871 55.3035 729.144 53.821C729.56 51.5555 729.53 50.7021 728.957 48.4676C727.199 41.6158 721.288 37.5933 714.588 38.6884ZM745.659 38.7216C743.333 39.1869 742.282 39.7553 740.376 41.5771L738.797 43.0865V41.1064V39.1262H736.692H734.587V56.599V74.0718H736.692H738.797V67.19V60.3083L740.489 61.9174C744.778 65.9977 752.25 65.6048 756.77 61.0615C759.63 58.1863 760.481 56.0024 760.476 51.5466C760.473 48.2597 760.324 47.4782 759.355 45.6522C756.594 40.4508 751.046 37.6438 745.659 38.7216ZM774.893 38.7326C770.529 39.4412 767.438 41.8427 765.481 46.0459C764.271 48.6432 764.115 53.4838 765.143 56.5005C767.925 64.6643 779.789 67.4919 786.383 61.5629C787.535 60.5268 788.479 59.5176 788.479 59.3205C788.479 59.1235 787.696 58.4962 786.741 57.9261L785.003 56.8895L783.62 58.2722C781.023 60.8682 775.921 61.208 772.532 59.0107C771.004 58.0196 769.111 55.4348 769.111 54.3389C769.111 54.0198 772.267 53.8425 779.321 53.7646L789.531 53.6518L789.66 51.6313C790.171 43.6477 783.03 37.4114 774.893 38.7326ZM802.862 39.3486C802.088 39.6841 800.904 40.5493 800.23 41.2714L799.004 42.5837V40.8327V39.082L796.794 39.2096L794.584 39.3368L794.472 51.6519L794.36 63.967H796.65H798.94L799.078 55.8424C799.196 48.8701 799.323 47.5532 799.974 46.5595C800.952 45.0695 803.004 43.8165 805.004 43.4881L806.583 43.2288V40.967C806.583 38.7764 806.547 38.7056 805.425 38.7216C804.788 38.7309 803.635 39.013 802.862 39.3486ZM679.393 43.8953C673.816 46.8395 673.223 54.6303 678.27 58.6448C681.05 60.8565 686.282 60.7398 688.939 58.4073C691.993 55.7254 692.942 51.3866 691.267 47.7574C689.241 43.3681 683.765 41.5867 679.393 43.8953ZM712.696 43.5635C709.137 45.1621 707.479 48.0449 707.715 52.2232C707.851 54.6412 708.071 55.3191 709.151 56.6533C711.375 59.4014 712.414 59.9395 715.767 60.0818C719.43 60.2367 721.415 59.2953 723.41 56.4563C724.525 54.8711 724.69 54.2749 724.691 51.8283C724.693 48.3489 723.656 46.1629 721.173 44.4085C719.012 42.8818 715.085 42.4903 712.696 43.5635ZM743.389 43.8957C742.169 44.5399 741.101 45.5747 740.271 46.917C739.193 48.6584 739.008 49.3754 739.009 51.7976C739.011 54.2783 739.172 54.866 740.29 56.4563C742.071 58.99 744.294 60.1622 747.336 60.171C750.28 60.179 752.04 59.4805 753.823 57.5964C755.541 55.7818 756.059 54.368 756.059 51.5024C756.059 44.9087 749.232 40.8099 743.389 43.8957ZM773.743 43.3875C771.682 44.2064 769.111 47.322 769.111 48.9994C769.111 49.5661 770.167 49.652 777.111 49.652C781.792 49.652 785.11 49.4886 785.11 49.2583C785.11 47.4138 782.77 44.4245 780.598 43.4953C779.043 42.8301 775.292 42.7711 773.743 43.3875Z" fill="#001627"/>
</svg>
