<svg width="811" height="89" viewBox="0 0 811 89" fill="none" xmlns="http://www.w3.org/2000/svg">
<path fill-rule="evenodd" clip-rule="evenodd" d="M24.0902 12C17.413 12 12 17.413 12 24.0902V65.1969C12 71.8742 17.413 77.2871 24.0902 77.2871H65.1969C71.8742 77.2871 77.2871 71.8742 77.2871 65.1969V24.0902C77.2871 17.413 71.8742 12 65.1969 12H24.0902ZM21.6918 36.1823H18.514V53.2751H22.0048V42.1528L27.253 49.351L32.5012 42.1528V53.2751H35.992V36.1823H32.8142L27.253 43.8139L21.6918 36.1823ZM37.961 36.1823L45.0148 53.2751H48.1204L55.1983 36.1823H51.3464L46.5796 48.051L41.7407 36.1823H37.961ZM58.0007 50.9881C59.734 52.7054 61.8205 53.564 64.26 53.564C65.9934 53.564 67.5582 53.1548 68.9545 52.3362C70.3508 51.5177 71.4181 50.4103 72.1564 49.014L69.123 47.3288C67.9995 49.2387 66.3785 50.1936 64.26 50.1936C62.7834 50.1936 61.5235 49.664 60.4803 48.6047C59.4531 47.5294 58.9396 46.2374 58.9396 44.7287C58.9396 43.2201 59.4531 41.9361 60.4803 40.8768C61.5235 39.8015 62.7834 39.2639 64.26 39.2639C66.3785 39.2639 67.9995 40.2188 69.123 42.1287L72.1564 40.4435C71.4181 39.0632 70.3428 37.9638 68.9304 37.1453C67.5181 36.3107 65.9612 35.8934 64.26 35.8934C61.8205 35.8934 59.734 36.7601 58.0007 38.4935C56.2834 40.2108 55.4247 42.2892 55.4247 44.7287C55.4247 47.1683 56.2834 49.2547 58.0007 50.9881Z" fill="#1975B8"/>
<path d="M89.4633 58.2844V29.6709H99.2286C101.865 29.6709 103.95 30.3963 105.483 31.8471C107.017 33.2711 107.783 35.1787 107.783 37.5698C107.783 39.6655 107.151 41.385 105.887 42.7283C104.649 44.0717 102.914 44.9046 100.681 45.227L111.738 58.2844H107.017L96.0004 45.2673H93.2161V58.2844H89.4633ZM93.2161 41.9223H98.7847C100.453 41.9223 101.744 41.5596 102.659 40.8342C103.573 40.0819 104.031 38.9938 104.031 37.5698C104.031 36.1459 103.573 35.0578 102.659 34.3055C101.744 33.5263 100.453 33.1368 98.7847 33.1368H93.2161V41.9223Z" fill="#05426F"/>
<path d="M122.314 58.6874C119.516 58.6874 117.162 57.6665 115.252 55.6246C113.369 53.5826 112.428 51.1109 112.428 48.2092C112.428 45.3076 113.369 42.8358 115.252 40.7939C117.162 38.752 119.516 37.731 122.314 37.731C123.794 37.731 125.166 38.0669 126.43 38.7386C127.721 39.3834 128.717 40.2163 129.416 41.2372V38.134H132.887V58.2844H129.416V55.1812C128.717 56.2022 127.721 57.0485 126.43 57.7202C125.166 58.365 123.794 58.6874 122.314 58.6874ZM122.839 55.5036C124.829 55.5036 126.471 54.8051 127.762 53.408C129.053 52.0109 129.699 50.278 129.699 48.2092C129.699 46.1405 129.053 44.4075 127.762 43.0104C126.471 41.6133 124.829 40.9148 122.839 40.9148C120.821 40.9148 119.167 41.6133 117.875 43.0104C116.584 44.4075 115.938 46.1405 115.938 48.2092C115.938 50.278 116.584 52.0109 117.875 53.408C119.167 54.8051 120.821 55.5036 122.839 55.5036Z" fill="#05426F"/>
<path d="M137.765 58.2844V55.544L149.305 41.3178H137.926V38.134H153.785V40.9148L142.244 55.1006H154.148V58.2844H137.765Z" fill="#05426F"/>
<path d="M167.569 58.6874C164.529 58.6874 162 57.6799 159.982 55.6649C157.991 53.623 156.996 51.1377 156.996 48.2092C156.996 45.2807 157.991 42.8089 159.982 40.7939C162 38.752 164.529 37.731 167.569 37.731C170.582 37.731 173.083 38.752 175.074 40.7939C177.092 42.8089 178.101 45.2807 178.101 48.2092C178.101 51.1377 177.092 53.623 175.074 55.6649C173.083 57.6799 170.582 58.6874 167.569 58.6874ZM162.484 53.3677C163.802 54.7648 165.497 55.4634 167.569 55.4634C169.64 55.4634 171.321 54.7648 172.613 53.3677C173.904 51.9706 174.55 50.2511 174.55 48.2092C174.55 46.1673 173.904 44.4478 172.613 43.0507C171.321 41.6536 169.64 40.9551 167.569 40.9551C165.497 40.9551 163.802 41.6536 162.484 43.0507C161.193 44.4478 160.547 46.1673 160.547 48.2092C160.547 50.2511 161.193 51.9706 162.484 53.3677Z" fill="#05426F"/>
<path d="M183.082 58.2844V38.134H186.552V42.0432C186.929 40.8073 187.655 39.8132 188.731 39.061C189.834 38.3087 190.991 37.9325 192.202 37.9325C192.793 37.9325 193.318 37.9863 193.775 38.0937V41.6805C193.291 41.4656 192.659 41.3581 191.879 41.3581C190.48 41.3581 189.242 41.9626 188.166 43.1716C187.09 44.3807 186.552 46.0867 186.552 48.2898V58.2844H183.082Z" fill="#05426F"/>
<path d="M222.952 32.2501C224.781 33.9696 225.696 36.1459 225.696 38.7789C225.696 41.4118 224.781 43.5881 222.952 45.3076C221.149 47.0002 218.782 47.8465 215.85 47.8465H210.846V58.2844H207.093V29.6709H215.85C218.782 29.6709 221.149 30.5306 222.952 32.2501ZM220.329 42.8089C221.432 41.7611 221.983 40.4178 221.983 38.7789C221.983 37.14 221.432 35.7966 220.329 34.7488C219.253 33.701 217.76 33.1771 215.85 33.1771H210.846V44.3807H215.85C217.76 44.3807 219.253 43.8567 220.329 42.8089Z" fill="#05426F"/>
<path d="M237.934 58.6874C235.136 58.6874 232.783 57.6665 230.872 55.6246C228.989 53.5826 228.048 51.1109 228.048 48.2092C228.048 45.3076 228.989 42.8358 230.872 40.7939C232.783 38.752 235.136 37.731 237.934 37.731C239.414 37.731 240.786 38.0669 242.05 38.7386C243.341 39.3834 244.337 40.2163 245.036 41.2372V38.134H248.507V58.2844H245.036V55.1812C244.337 56.2022 243.341 57.0485 242.05 57.7202C240.786 58.365 239.414 58.6874 237.934 58.6874ZM238.459 55.5036C240.45 55.5036 242.091 54.8051 243.382 53.408C244.673 52.0109 245.319 50.278 245.319 48.2092C245.319 46.1405 244.673 44.4075 243.382 43.0104C242.091 41.6133 240.45 40.9148 238.459 40.9148C236.441 40.9148 234.787 41.6133 233.495 43.0104C232.204 44.4075 231.558 46.1405 231.558 48.2092C231.558 50.278 232.204 52.0109 233.495 53.408C234.787 54.8051 236.441 55.5036 238.459 55.5036Z" fill="#05426F"/>
<path d="M258.913 53.0453C260.177 54.3618 261.818 55.02 263.836 55.02C265.854 55.02 267.495 54.3618 268.759 53.0453C270.023 51.702 270.656 50.0093 270.656 47.9674C270.656 45.9255 270.01 44.2463 268.719 42.9298C267.454 41.5865 265.827 40.9148 263.836 40.9148C261.845 40.9148 260.204 41.5865 258.913 42.9298C257.649 44.2463 257.016 45.9255 257.016 47.9674C257.016 50.0093 257.649 51.702 258.913 53.0453ZM263.634 67.1103C261.563 67.1103 259.693 66.7207 258.025 65.9415C256.357 65.1893 255.066 64.2086 254.151 62.9996L256.572 60.5815C258.348 62.8384 260.702 63.9668 263.634 63.9668C265.517 63.9668 267.105 63.3757 268.396 62.1936C269.714 61.0114 270.373 59.2785 270.373 56.9948V54.6976C269.647 55.7723 268.665 56.6321 267.427 57.2769C266.19 57.9217 264.831 58.2441 263.352 58.2441C260.527 58.2441 258.173 57.2634 256.29 55.3021C254.407 53.314 253.465 50.8691 253.465 47.9674C253.465 45.0926 254.407 42.6746 256.29 40.7133C258.2 38.7251 260.554 37.731 263.352 37.731C264.831 37.731 266.19 38.0534 267.427 38.6983C268.665 39.3431 269.647 40.1894 270.373 41.2372V38.134H273.843V57.1157C273.843 60.3666 272.888 62.8384 270.978 64.531C269.095 66.2505 266.647 67.1103 263.634 67.1103Z" fill="#05426F"/>
<path d="M289.255 58.6874C286.162 58.6874 283.646 57.6933 281.709 55.7052C279.772 53.717 278.804 51.2183 278.804 48.2092C278.804 45.227 279.786 42.7418 281.75 40.7536C283.714 38.7386 286.229 37.731 289.296 37.731C292.013 37.731 294.286 38.6445 296.115 40.4715C297.972 42.2716 298.9 44.7299 298.9 47.8465C298.9 48.2495 298.886 48.5988 298.859 48.8943H282.315C282.368 50.775 283.041 52.3468 284.332 53.6095C285.65 54.8723 287.305 55.5036 289.296 55.5036C292.12 55.5036 294.219 54.3349 295.591 51.9975L298.335 53.8916C296.371 57.0888 293.344 58.6874 289.255 58.6874ZM282.557 46.0733H295.349C295.08 44.4613 294.367 43.1851 293.21 42.2447C292.08 41.2775 290.735 40.7939 289.175 40.7939C287.587 40.7939 286.162 41.2775 284.897 42.2447C283.66 43.1851 282.88 44.4613 282.557 46.0733Z" fill="#05426F"/>
<path d="M309.918 58.6874C308.062 58.6874 306.434 58.2978 305.035 57.5187C303.637 56.7127 302.628 55.544 302.009 54.0125L304.834 52.4408C305.21 53.4349 305.869 54.214 306.811 54.7782C307.753 55.3424 308.802 55.6246 309.958 55.6246C310.954 55.6246 311.788 55.3827 312.46 54.8991C313.133 54.4155 313.469 53.7573 313.469 52.9244C313.469 52.199 313.2 51.5945 312.662 51.1109C312.151 50.6273 311.25 50.184 309.958 49.781L307.941 49.1361C304.578 48.1689 302.897 46.2076 302.897 43.2522C302.897 41.5865 303.556 40.2565 304.874 39.2625C306.219 38.2415 307.874 37.731 309.837 37.731C312.904 37.731 315.124 38.8998 316.496 41.2372L313.913 43.0104C312.81 41.479 311.411 40.7133 309.716 40.7133C308.802 40.7133 308.008 40.9417 307.336 41.3984C306.69 41.8283 306.367 42.4059 306.367 43.1313C306.367 43.803 306.569 44.3807 306.972 44.8643C307.403 45.321 308.156 45.7106 309.232 46.033L311.452 46.7181C315.11 47.8465 316.94 49.8213 316.94 52.6423C316.94 54.523 316.28 56.0007 314.962 57.0754C313.671 58.1501 311.99 58.6874 309.918 58.6874Z" fill="#05426F"/>
<g clip-path="url(#clip0_2275_46)">
<path d="M423.27 56.6806V33.9254H426.197L440.109 52.2496V33.9254H442.891V56.6806H439.964L426.036 38.1763V56.6806H423.253H423.27ZM465.556 55.7772C463.659 56.4782 461.651 56.8331 459.629 56.8252C451.39 56.8252 447.268 52.8855 447.268 44.9707C447.268 37.49 451.243 33.7303 459.212 33.7303C461.49 33.7303 463.619 34.0549 465.571 34.6723V37.2023C463.619 36.4454 461.596 36.082 459.535 36.082C453.319 36.082 450.211 39.046 450.211 44.9001C450.211 51.2252 453.282 54.3709 459.39 54.3709C460.366 54.3709 461.451 54.2262 462.644 53.9739V46.3485H465.571V55.7806L465.556 55.7772ZM470.254 47.8978V33.912H473.181V47.8978C473.181 52.2715 475.368 54.4584 479.742 54.4584C484.078 54.4584 486.302 52.2715 486.302 47.8978V33.912H489.229V47.8978C489.229 53.8612 486.084 56.8606 479.758 56.8606C473.433 56.8606 470.288 53.8612 470.288 47.8978H470.254ZM497.361 33.9254V54.3255H509.305V56.7108H494.451V33.9254H497.378H497.361ZM513.517 56.694H510.445L521.753 30.9429L533.066 56.7108H529.812L526.885 49.5547H519.366L520.162 47.1694H525.908L521.644 36.8693L513.51 56.7108L513.517 56.694ZM536.213 56.694V33.9254H545.936C550.273 33.9254 552.441 35.7321 552.441 39.3825C552.441 42.3465 550.308 44.5502 546.083 45.9431L553.888 56.6755H550.019L542.791 46.4477V44.5687C547.127 43.8824 549.351 42.2203 549.351 39.5456C549.351 37.4496 548.174 36.3999 545.738 36.3999H539.233V56.6806H536.233L536.213 56.694Z" fill="#B52D31"/>
<path fill-rule="evenodd" clip-rule="evenodd" d="M392.147 19.5454L368.837 27.8555L372.415 58.7003L392.147 69.6346L412.204 58.5405L416.073 27.7125L392.147 19.5454ZM377.655 57.6912L392.186 25.398L392.2 25.3812L407.343 57.7636L402.175 57.6559L398.979 50.2828H386.004L383.077 57.5836L377.655 57.6912ZM397.135 46.0353L392.22 35.7705V35.7738L387.917 46.0353H397.135Z" fill="#E23237"/>
<path fill-rule="evenodd" clip-rule="evenodd" d="M392.146 19.543L416.072 27.7101L412.204 58.5381L392.146 69.6339V50.2815H398.981L402.177 57.6546L407.344 57.7622L392.201 25.3798L392.188 25.3967L392.146 25.4899V19.543Z" fill="#B52E31"/>
</g>
<path d="M666.134 34.6742C664.788 43.1035 660.496 50.7823 654.019 56.3447C647.543 61.9071 639.302 64.9923 630.764 65.0514C629.034 65.1179 627.303 65.0127 625.594 64.7378C622.021 64.1308 618.763 62.3175 616.365 59.6004C613.967 56.8832 612.574 53.4264 612.417 49.8066C612.452 45.7691 614.073 41.9071 616.931 39.0539C619.789 36.201 623.655 34.5859 627.694 34.5574C631.733 34.5289 635.621 36.0892 638.519 38.9015C641.417 41.7139 643.093 45.5526 643.184 49.5891C643.249 52.1386 642.144 54.3748 639.874 54.4394C637.448 54.4394 636.311 52.709 636.311 50.377V43.8969C636.311 42.849 635.898 41.8433 635.16 41.0991C634.422 40.3548 633.419 39.9325 632.371 39.9241H626.937C625.356 39.9132 623.798 40.2985 622.405 41.0447C621.012 41.7909 619.828 42.8743 618.961 44.1959C618.095 45.5174 617.574 47.0348 617.445 48.6096C617.316 50.1844 617.585 51.7663 618.225 53.2108C618.865 54.6553 619.858 55.9163 621.111 56.8787C622.365 57.8411 623.84 58.4741 625.401 58.7199C626.963 58.9655 628.561 58.8161 630.05 58.2853C631.538 57.7544 632.87 56.8591 633.923 55.6812L634.114 55.3979L634.304 55.7123C634.957 56.5999 635.82 57.3123 636.816 57.7862C637.811 58.2601 638.908 58.4807 640.009 58.4285C641.973 58.2859 643.802 57.3819 645.107 55.9094C646.413 54.4369 647.09 52.5127 646.996 50.5476C647.015 48.8612 646.826 47.179 646.433 45.5389C645.425 40.9058 642.738 36.8095 638.888 34.0402C635.038 31.2708 630.299 30.0241 625.585 30.5403C620.87 31.0565 616.514 33.2991 613.355 36.8358C610.196 40.3728 608.459 44.9534 608.478 49.6947C608.539 54.7222 610.547 59.5304 614.079 63.1093C617.612 66.688 622.395 68.7585 627.423 68.8856C627.423 68.8856 628.846 69.0151 630.45 68.9782C638.249 68.9288 645.871 66.6554 652.422 62.4251C652.515 62.3603 652.608 62.4897 652.546 62.5841C649.357 66.0183 645.457 68.7163 641.119 70.49C636.78 72.2638 632.106 73.0707 627.423 72.8545C624.362 72.9101 621.321 72.3452 618.484 71.1939C615.648 70.0425 613.073 68.3286 610.917 66.1556C608.761 63.9825 607.067 61.3953 605.939 58.5501C604.81 55.7049 604.269 52.6607 604.349 49.6009C604.351 45.9531 605.203 42.3559 606.839 39.0952C608.475 35.8345 610.849 33 613.773 30.8172C617.702 27.9247 622.451 26.3578 627.33 26.3433H634.624C637.473 26.3411 640.29 25.746 642.896 24.5957C645.502 23.4454 647.84 21.7652 649.761 19.662C649.802 19.6171 649.856 19.5863 649.915 19.5742C649.974 19.5614 650.036 19.5675 650.092 19.5918C650.147 19.616 650.194 19.6571 650.225 19.7093C650.256 19.7617 650.27 19.8224 650.265 19.8834C649.956 23.1601 648.865 26.3149 647.083 29.0827C647.056 29.1307 647.045 29.1854 647.049 29.2401C647.053 29.2948 647.073 29.3471 647.106 29.3906C647.139 29.434 647.185 29.4669 647.236 29.4853C647.288 29.5036 647.343 29.5066 647.397 29.4939C650.763 28.7337 653.904 27.1941 656.567 24.9991C659.23 22.8041 661.34 20.0149 662.728 16.856C662.763 16.7995 662.812 16.7527 662.87 16.7194C662.928 16.6867 662.993 16.6694 663.06 16.6694C663.127 16.6694 663.192 16.6867 663.251 16.7194C663.308 16.7525 663.357 16.7993 663.392 16.856C666.25 22.3294 667.214 28.5951 666.134 34.6742ZM627.404 43.816C626.565 43.8159 625.737 44.0017 624.978 44.3602C624.22 44.7186 623.55 45.2408 623.018 45.889C622.486 46.5372 622.104 47.2953 621.9 48.1088C621.697 48.9223 621.676 49.7708 621.84 50.5932C622.059 51.6933 622.599 52.7037 623.392 53.4969C624.186 54.29 625.196 54.8302 626.297 55.0492C627.12 55.2127 627.968 55.1919 628.782 54.988C629.596 54.7842 630.354 54.4025 631.003 53.8705C631.651 53.3384 632.173 52.6693 632.532 51.9112C632.89 51.1531 633.076 50.3249 633.076 49.4864V44.1924C633.071 44.0912 633.028 43.9954 632.957 43.9237C632.885 43.852 632.789 43.8095 632.688 43.8044L627.404 43.816Z" fill="#5D2D92"/>
<path d="M679.713 59.5024V31.4921H689.378C691.824 31.4921 693.823 32.2417 695.375 33.7408C696.953 35.24 697.742 37.0679 697.742 39.2245C697.742 41.539 696.874 43.3406 695.138 44.6293C698.136 45.8655 699.635 48.0879 699.635 51.2966C699.635 53.6373 698.781 55.5967 697.071 57.1748C695.388 58.7265 693.231 59.5024 690.601 59.5024H679.713ZM684.328 55.2811H690.483C691.956 55.2811 693.1 54.9129 693.915 54.1765C694.73 53.4401 695.138 52.467 695.138 51.2571C695.138 50.0736 694.73 49.1136 693.915 48.3772C693.1 47.6145 691.956 47.2331 690.483 47.2331H684.328V55.2811ZM684.328 43.288H689.141C690.377 43.288 691.364 42.9329 692.1 42.2228C692.837 41.5127 693.205 40.6053 693.205 39.5007C693.205 38.4487 692.837 37.5544 692.1 36.818C691.364 36.0816 690.377 35.7134 689.141 35.7134H684.328V43.288Z" fill="#5D2D92"/>
<path d="M703.972 59.5024V29.9141H708.312V59.5024H703.972Z" fill="#5D2D92"/>
<path d="M722.231 59.8969C719.548 59.8969 717.286 58.8975 715.445 56.8986C713.63 54.8998 712.723 52.4801 712.723 49.6396C712.723 46.7991 713.63 44.3795 715.445 42.3806C717.286 40.3818 719.548 39.3823 722.231 39.3823C723.572 39.3823 724.808 39.6848 725.939 40.2897C727.07 40.8683 727.938 41.5784 728.543 42.4201V39.7768H732.882V59.5024H728.543V56.8592C727.938 57.7008 727.07 58.4241 725.939 59.029C724.808 59.6076 723.572 59.8969 722.231 59.8969ZM718.798 54.1371C719.903 55.3469 721.31 55.9518 723.02 55.9518C724.729 55.9518 726.136 55.3469 727.241 54.1371C728.346 52.9272 728.898 51.4281 728.898 49.6396C728.898 47.8512 728.346 46.352 727.241 45.1422C726.136 43.9324 724.729 43.3274 723.02 43.3274C721.31 43.3274 719.903 43.9324 718.798 45.1422C717.694 46.352 717.141 47.8512 717.141 49.6396C717.141 51.4281 717.694 52.9272 718.798 54.1371Z" fill="#5D2D92"/>
<path d="M737.42 59.5024V56.0702L747.756 43.722H737.578V39.7768H753.359V43.2485L743.022 55.5573H753.674V59.5024H737.42Z" fill="#5D2D92"/>
<path d="M774.048 56.9381C772.075 58.9106 769.629 59.8969 766.71 59.8969C763.79 59.8969 761.331 58.9106 759.332 56.9381C757.36 54.9392 756.373 52.5064 756.373 49.6396C756.373 46.7728 757.36 44.3532 759.332 42.3806C761.331 40.3818 763.79 39.3823 766.71 39.3823C769.629 39.3823 772.075 40.3818 774.048 42.3806C776.046 44.3532 777.046 46.7728 777.046 49.6396C777.046 52.5064 776.046 54.9392 774.048 56.9381ZM766.71 55.8729C768.419 55.8729 769.826 55.2811 770.931 54.0976C772.062 52.8878 772.627 51.4018 772.627 49.6396C772.627 47.8775 772.062 46.4046 770.931 45.2211C769.826 44.0113 768.419 43.4063 766.71 43.4063C764.974 43.4063 763.54 44.0113 762.409 45.2211C761.305 46.4046 760.753 47.8775 760.753 49.6396C760.753 51.4018 761.305 52.8878 762.409 54.0976C763.54 55.2811 764.974 55.8729 766.71 55.8729Z" fill="#5D2D92"/>
<path d="M781.41 59.5024V39.7768H785.75V43.288C786.118 42.1834 786.789 41.2891 787.762 40.6053C788.762 39.9215 789.827 39.5796 790.958 39.5796C791.641 39.5796 792.207 39.6322 792.654 39.7374V44.1954C792.023 43.9587 791.3 43.8403 790.484 43.8403C789.169 43.8403 788.051 44.3795 787.131 45.4578C786.21 46.5098 785.75 47.9827 785.75 49.8763V59.5024H781.41Z" fill="#5D2D92"/>
<defs>
<clipPath id="clip0_2275_46">
<rect width="185.219" height="65.3714" fill="white" transform="translate(368.837 12)"/>
</clipPath>
</defs>
</svg>
